<?xml version="1.0" encoding="utf-8"?>
<!-- Generator: Adobe Illustrator 25.3.0, SVG Export Plug-In . SVG Version: 6.00 Build 0)  -->
<svg version="1.1" id="Layer_1" xmlns="http://www.w3.org/2000/svg" xmlns:xlink="http://www.w3.org/1999/xlink" x="0px" y="0px"
	 viewBox="0 0 1189 1017" style="enable-background:new 0 0 1189 1017;" xml:space="preserve">
<style type="text/css">
	.st0{fill:#FCFDFD;}
	.st1{fill:#68CCCD;}
	.st2{fill:#67CCCD;}
	.st3{fill:#A7A2B7;}
	.st4{fill:#A7A3B8;}
	.st5{fill:#777493;}
	.st6{fill:#736F91;}
	.st7{fill:#747191;}
	.st8{fill:#3095A2;}
	.st9{fill:#2F94A2;}
	.st10{fill:#3195A2;}
	.st11{fill:#2E94A2;}
	.st12{fill:#3295A3;}
	.st13{fill:#18A1A6;}
</style>
<g>
	<path class="st0" d="M151.4,507.7c0-7.7,0-15.4,2.2-24.5c79.4-1.4,156.6-1.4,233.9-1.4c9.9,0,22.9,3.2,18.9-17.2
		c0.4-22.7,0.4-43,0.4-65.7c23.3,0,43.1,0,64.6,0.5c9.4,0,17.1,0,26,0c2.7-1.4,4-3.2,5.8-6.8c0-6.3-0.4-11.3,0-18.1
		c0.4-24,0.4-46.2,0.4-71.1c23.8,0,44,0,66.4,0.5c12.1,1.8,16.2-2.3,16.2-13.1c-0.4-71.1-0.9-142.3-0.9-213.4
		c7.6,0.5,15.3,0.9,22.9,4.5c0.4,76.1,0.4,148.6,0.4,221.6c7.6,0,12.6,0,19.7,0.5c21.5,0.5,41.3,0.5,63.3,0.5
		c0,29.9,0,55.7-0.4,82.9c0,3.2,0,5.4,0.9,9.1c32.3,2.7,64.2,3.6,95.6,6.8c0.4,22.7,0.9,43,0.9,65.7c3.6,5.9,7.6,12.7,11.7,12.7
		c79.9,0,159.8-0.9,239.7-1.4c14.8,11.8,15.3,17.2,0,30.4c-85.3-1.4-167.9-1.4-251.4-1.4c0,6.8,0,11.8-0.4,19
		c-0.4,21.3-0.4,40.3-0.4,61.2c-23.3,0.9-44.4,1.8-67.3,2.3c-10.8,1.8-19.7,4.5-29.2,8.2c0,1.8,0,2.7,0,4.1
		c-0.4,0.5,0.4,1.4-0.4,3.2c-0.4,27.6-0.4,53.5-0.4,82.9c-23.3,0-44,0-66.4-0.5c-12.1-1.8-16.6,1.8-16.2,13.1
		c0.9,69.8,0.9,139.6,0.9,209.3c-13.9,8.6-13.9,8.6-24.2-5c1.3-69.3,1.3-135.5,1.8-202.1c0-10.4-0.9-18.6-16.6-15
		c-22.4-0.5-43.1-0.5-67.3-0.5c0-26.3,0-49.8,0.4-74.8c0-6.3,0-10.9-0.4-17.2c-2.2-2.7-4-3.6-7.6-5.4c-9.4-0.5-17.5,0-26.9-0.5
		c-4.9,0-8.1,0-13,0c-13,0-23.8,0-36.4,0c-4.9-0.9-8.5-1.4-11.7-1.8c0,0,0,0,0-1.8c-0.4-18.6-0.4-35.3-0.4-53.5c0-3.6,0-5.4,0-9.5
		c2.7-18.1-8.5-15.9-18.4-15.9C309.4,508.6,230.4,508.1,151.4,507.7z"/>
	<path class="st1" d="M222.8,412.5c-14.4-18.1-28.7-36.2-43.1-54.4c-3.1-4.1-5.8-8.6-8.1-13.1c-26.9-48.9-23.3-58.4,29.6-77
		c50.3-17.7,101-22.2,153.1-9.5c3.1,0.9,7.2,0,13.9,0c-14.8-78.8-2.2-150,48.9-214.3c42.6,18.1,80.8,42.6,110,83.8
		c1.3,3.6,1.3,5.4-0.4,7.7c-48.5,43.9-95.2,87.4-143.6,131.4c-3.6,3.2-5.8,5.9-9.4,9.1c-49.8,45.3-97.8,90.6-147.2,135.5
		C225,412.5,222.8,412.5,222.8,412.5z"/>
	<path class="st2" d="M667.6,128.4c26.9-33.1,58.4-59.8,97-77.5c10.3-4.5,16.2-6.8,24.7,6.3c41.7,63,54.3,130.5,35.5,205.2
		c24.7-4.1,48.9-11.3,72.7-11.3c50.3,0.9,98.7,11.8,140.5,41.7c3.6,2.3,4.9,11.8,3.1,16.8c-12.6,39-36.4,70.7-68.2,99.2
		c-4.5,0.5-6.3,0.5-9-0.9c-31.9-30.8-62.4-60.7-93.4-89.7c-15.7-14.5-33.2-27.6-50.3-42.6c-3.1-3.6-5.8-5.4-9.4-9.1
		c-48-45.3-95.6-89.3-142.7-134.6C667.6,130.2,667.6,128.4,667.6,128.4z"/>
	<path class="st2" d="M527.6,865.6c-26,21.7-52.1,43.9-78.5,64.3c-36.4,28.1-39.9,10.4-55.7-17.2c-31.9-56.6-39.9-117.3-22.9-182.1
		c-52.1,12.2-102.8,12.7-153.1-1.4c-15.7-4.5-30.5-13.6-45.3-21.3c-25.6-12.7-24.2-12.7-12.6-39.9c14.4-33.5,36.4-61.2,64.6-86.5
		c3.6-1.4,5.4-1.4,7.2,0.5c1.8,4.1,3.1,6.8,4.9,9.1c39.9,37.6,79.9,75.2,120.7,111.9c4.5,4.1,11.7,5.9,18,10c3.1,5,6.3,8.2,9.9,13.1
		c25.6,24.9,50.3,48.9,75.4,72c22,19.9,44.9,39,67.3,59.8C528,862,528,863.8,527.6,865.6z"/>
	<path class="st2" d="M972.4,580.6c29.6,31.3,57,63.4,70.5,105.1c0.9,2.7,0.9,5.9,1.8,8.6c-65.1,48.9-137.3,53.5-216.8,35.3
		c1.8,12.7,4.5,23.6,4.9,34.9c4.5,60.3-7.2,116.4-41.3,166.7c-8.5,12.7-18.4,13.6-32.3,7.7c-36.8-15.4-61.5-45.8-90.2-74.8
		c-1.3-3.6-0.9-5.4,0.4-7.7c48-43.9,94.7-87.4,143.2-131.4c3.6-3.2,5.8-5.9,9.4-9.1c49.8-45.8,97.8-90.6,147.2-135.5
		C970.1,581.1,972.4,580.6,972.4,580.6z"/>
	<path class="st3" d="M867.3,879.6c-17.5-48.9,0-80.6,26.5-99.2c33.2-22.7,82.6-14.5,102.8,18.1c19.7,31.3,19.7,79.7-17.5,107.8
		C949,929,892,915.4,867.3,879.6z"/>
	<path class="st4" d="M864.7,124.3c12.1-32.2,32.8-49.8,66-51.2c33.7-1.4,57.5,13.6,72.7,43.5c14.8,29.9,5.8,64.8-21.5,90.2
		c-21.5,19.5-64.2,22.2-88.9,5.4C866,195,853.9,157.4,864.7,124.3z"/>
	<path class="st4" d="M330.5,176c-17.1,35.8-50.3,53-84.8,46.7c-26.9-5.4-55.7-34.4-58.8-59.4c-4.9-40.8,11.2-72,47.6-86.1
		c26-10,52.5-6.8,74.1,12.7C333.2,112.6,342.6,141.1,330.5,176z"/>
	<path class="st4" d="M318.8,797.6c22.4,24.9,22,53.5,9.9,78.4c-12.1,25.4-33.2,41.2-66,40.8c-31.4-0.5-55.7-10-68.7-37.6
		c-13-27.2-11.2-55.7,6.3-81.6C226.8,758.2,279.8,757.8,318.8,797.6z"/>
	<path class="st5" d="M231.3,581.1c-1.8,0-3.1,0-6.3,0c-25.1-23.6-49.4-46.7-73.6-71.6c79-1.4,158-0.9,237-0.9
		c9.4,0,20.6-2.3,16.2,15.9c-21.5,2.3-41.3,2.3-61.9,2.7c-4.9,1.4-8.5,2.7-13.9,4.1c-29.2,12.2-56.1,24-84.8,36.7
		c-3.6,4.5-5.8,8.6-9,12.7C232.7,580.6,231.8,581.1,231.3,581.1z"/>
	<path class="st5" d="M973.7,580.2c-1.3,0.5-3.6,0.9-5.4-0.5c-53.4-44.4-113.6-59.8-179.5-53.5c0-5,0-10.4,0-16.8
		c83.5,0,165.6,0,249.6,1.4c-14.8,18.6-30.5,35.3-46.7,52.6C986.3,568.8,980.5,573.8,973.7,580.2z"/>
	<path class="st6" d="M964.3,408.9c1.8,0,3.6,0.5,7.2,0.5c23.8,22.7,46.2,45.3,68.7,69.8c-79.9,2.3-159.8,2.7-239.7,2.7
		c-4,0-8.1-6.8-9.9-12.7c42.2,1.4,81.2-3.6,117.1-20.4C928.4,438.8,945.9,422,964.3,408.9z"/>
	<path class="st6" d="M221.4,413c1.3-0.5,3.6-0.9,5.8,0c54.3,41.7,113.1,59.4,178.6,53.9c4,18.1-8.5,15-18.4,15
		c-77.2,0-154.4,0-233.4,0C174.8,459.2,197.2,436.5,221.4,413z"/>
	<path class="st7" d="M666.3,128c1.3,0.5,1.3,2.7,0.9,5c-32.8,53.9-51.6,108.7-39.9,170.8c-5.4,0-10.3,0-18,0
		c0-72.9,0-145.9,0.9-220.7C628.6,96.3,646.5,111.7,666.3,128z"/>
	<path class="st7" d="M668.1,857.4c0,1.8-0.4,3.6-0.4,6.3c-18.4,16.8-36.8,31.7-56.6,47.6c-1.8-69.3-1.8-139.1-2.7-208.9
		c0-11.3,4-15,15.7-11.3C616.4,754.1,632.1,808.5,668.1,857.4z"/>
	<path class="st7" d="M527.6,135.7c0-1.8,0-3.6,0-6.3c18.4-17.7,36.8-34,56.6-51.2c1.8,70.7,1.8,141.8,2.2,213
		c0,10.9-4,15-15.3,11.3C578.3,239.4,564.8,184.6,527.6,135.7z"/>
	<path class="st7" d="M529.4,866c-1.3-2.3-1.3-4.1,0-8.2c35.5-52.1,47.1-108.3,43.1-168.1c13.5-3.6,14.4,4.1,14.4,14.5
		c-0.4,66.2-0.4,132.8-1.8,200.3C566.2,893.2,548.7,879.6,529.4,866z"/>
	<path class="st8" d="M788.3,528.5c66.4-8.6,126.1,6.8,178.6,51.2c-47.6,46.2-96.1,91.1-146.3,135.5
		c-18.4-53.9-49.8-95.1-98.3-122.8c21.1-0.9,42.2-1.8,65.5-2.7C788.3,568.8,788.3,549.8,788.3,528.5z"/>
	<path class="st9" d="M406.4,465.1c-66,7.2-124.8-10.4-178.2-52.1c47.1-45.8,95.2-91.1,145.4-135c23.8,48.5,49.8,92.9,95.6,121
		c-19.7,0-39.5,0-62.8,0C406.8,422,406.8,442.4,406.4,465.1z"/>
	<path class="st9" d="M963.8,407.5c-18,15-35.5,31.3-56.1,41.2c-35.9,17.2-75,22.2-116.7,18.6c-2.2-20.8-2.7-41.2-4-65.2
		c-15.3-4.5-29.6-5.9-43.5-8.6c3.6-6.3,6.7-11.8,10.8-15.9c30.5-28.1,52.5-61.6,66-101c16.6,13.6,33.7,26.7,49.8,41.2
		C901.5,346.8,932,376.7,963.8,407.5z"/>
	<path class="st10" d="M669.4,857c-37.7-48.5-53-102.9-43.5-165.8c21.1-1.8,41.7-1.8,65.1-1.8c0-29,0-54.8,1.3-81.1
		c18,44.4,51.2,73.4,89.8,97.9c9.9,6.3,19.3,13.1,29.2,19.5C764.6,769.5,717.4,813,669.4,857z"/>
	<path class="st10" d="M629,303.8c-13.9-62.5,4.9-117.3,38.2-170.4c48,42.6,95.6,87,142.7,133.7c-9,7.7-18.9,11.8-26.9,17.2
		c-38.6,25.8-72.3,56.6-90.7,101.5c0-25.8,0-51.7,0-81.6C669.8,304.2,650.5,304.2,629,303.8z"/>
	<path class="st11" d="M231.8,582.9c0.4-1.8,1.3-1.8,4.9-2.3c4.9-4.5,6.7-9.1,9-13.1c27.4-12.2,54.8-24,83.9-34.9
		c6.3-0.9,10.8-3.2,14.8-5.4c19.3-0.5,38.6-0.5,60.1-0.5c2.2,2.3,2.2,4.1,1.3,9.1c-0.4,19.9,0.4,37.2,1.8,54.4c0,0-0.4,0,0,1.4
		c4.5,1.4,9,0.9,13.5,0.9c10.8-0.5,21.5-0.5,35.5,0c5.4,1.4,7.6,1.8,9,3.6c-3.6,1.8-5.8,2.3-9.9,3.2c-3.6,1.4-5.4,3.2-7.6,5.9
		c-24.2,36.7-48.5,72-72.3,107.4c-5.8-2.7-13-4.5-17.5-8.6C318,666.7,278,629.1,237.6,591.9C234.5,589.7,233.6,586.5,231.8,582.9z"
		/>
	<path class="st12" d="M570.2,689.8c6.3,60.3-5.4,116.4-41.3,167.2c-23.8-18.6-46.7-37.6-68.7-57.5c-25.1-23.1-49.8-47.1-74.1-72.5
		c47.6-29.5,88-63,116.7-110.1c0,23.6,0,47.1,0,73.4C527.6,689.3,547.8,689.3,570.2,689.8z"/>
	<path class="st10" d="M526.2,136.1c38.6,48.5,52.1,103.3,43.1,165.8c-21.1,1.8-41.7,1.8-65.1,1.8c0,24.9,0,47.1-1.8,70.7
		c-16.2-17.2-28.3-38.1-45.8-53.5c-22-19.9-48.5-35.8-72.7-53.5C431.1,223.6,477.7,180.1,526.2,136.1z"/>
	<path class="st13" d="M812.6,725.6c-11.2-6.3-20.6-12.7-30.5-19c-38.6-24.5-71.8-53.5-88.9-99.7c-0.9-1.8-1.3-2.7,0-3.6
		c0.4-2.3,0-3.6-0.9-5c9-2.3,18-5,28.7-6.8c50.3,28.1,81.7,68.9,98.7,123.7C818,720.2,816.2,722.9,812.6,725.6z"/>
	<path class="st13" d="M382.6,267.5c25.6,17.2,52.1,33.1,74.1,53c17.1,15.4,29.2,36.7,44.9,55.7c1.8,5.4,2.2,10,0.9,16.8
		c-3.1,3.6-4.5,5-6.3,6.3c-7.6,0-15.3,0.5-24.7,0c-47.6-29-73.6-72.9-96.1-121.9C377.2,273.4,379,270.7,382.6,267.5z"/>
	<path class="st13" d="M503.3,614.6c-28.7,48.9-69.6,82.9-117.6,110.6c-4.5-2.7-7.6-6.3-10.8-11.3c23.8-36.7,48-72,73.6-109.2
		c3.6-3.2,5.8-4.5,7.6-5.9c2.7-0.9,4.9-1.4,9-3.6c2.7-1.8,3.6-2.3,4-3.2c8.1,0,15.7-0.5,26,1.4c4,3.2,5.8,4.5,7.2,5.4
		C502.9,603.3,503.3,608.2,503.3,614.6z"/>
	<path class="st13" d="M691.4,387.1c18.4-46.2,52.5-77,91.1-102.9c8.5-5.9,18-10,27.8-15.9c3.6,0.9,6.7,2.7,9.9,6.3
		c-13,40.8-35,74.3-66,102.4c-4.5,4.1-7.2,9.5-13,15.9c-18,1.4-33.7,1.4-49.8,1.4C691.4,392.6,691.4,390.8,691.4,387.1z"/>
	<path class="st10" d="M692.3,396.2c15.3-1.8,31-1.8,48.9-1.8c16.2,0.9,30.5,2.3,45.8,5C756,400.3,724.6,399.4,692.3,396.2z"/>
	<path class="st12" d="M407.3,587.4c-0.9-15-2.2-32.2-2.2-50.7C406.4,552.1,406.8,568.8,407.3,587.4z"/>
	<path class="st12" d="M418.5,591.5c-2.7,0.5-7.2,0.9-11.7-0.5C410.4,590.1,413.6,590.6,418.5,591.5z"/>
	<path class="st12" d="M467.9,591.5c0.9,1.4,0,2.3-1.8,2.7c-3.1,0-5.4-0.5-8.5-1.8C459.8,591.5,463.4,591.5,467.9,591.5z"/>
	<path class="st10" d="M497.9,399.8c0-1.8,1.8-3.2,4.5-5C502,396.2,500.6,398,497.9,399.8z"/>
	<path class="st12" d="M502.4,596.9c-1.3,0.5-3.1-0.5-5.4-3.2C498.4,593.3,500.6,594.2,502.4,596.9z"/>
	<path class="st10" d="M691.8,600.1c0.9,0,1.8,1.4,1.3,3.2C691.8,602.8,691.8,601.9,691.8,600.1z"/>
	<path class="st12" d="M342.6,526.7c-3.1,2.3-7.2,4.5-11.7,5.4C334.1,529.4,337.7,528,342.6,526.7z"/>
	<path class="st12" d="M243.9,567.5c-0.9,3.6-2.7,8.2-6.3,12.7C238.1,576.5,240.3,572.4,243.9,567.5z"/>
	<path class="st12" d="M454.9,598.7c-0.9,1.4-2.7,2.7-6.3,4.5C449.5,601.9,451.3,600.5,454.9,598.7z"/>
</g>
</svg>
